<mxfile host="app.diagrams.net" modified="2024-01-23T08:03:01.613Z" agent="Mozilla/5.0 (Macintosh; Intel Mac OS X 10_15_7) AppleWebKit/537.36 (KHTML, like Gecko) Chrome/120.0.0.0 Safari/537.36 Edg/120.0.0.0" version="22.1.21" etag="WY6uMAZjyJ70VENkfgiA" type="github">
  <diagram name="第 1 页" id="a42U0nUOHRjJRgB3q7TY">
    <mxGraphModel>
      <root>
        <mxCell id="0" />
        <mxCell id="1" parent="0" />
      </root>
    </mxGraphModel>
  </diagram>
</mxfile>
